<svg xmlns="http://www.w3.org/2000/svg" viewBox="0 0 100 100" width="100" height="100">
  <!-- Pear Body -->
  <path d="M50,35 C65,35 75,50 75,70 C75,85 65,95 50,95 C35,95 25,85 25,70 C25,50 35,35 50,35 Z" 
        fill="#9CCC65" stroke="#4B7B33" stroke-width="3"/>
  
  <!-- Pear Stem -->
  <path d="M50,35 C50,25 45,20 50,15 C55,10 65,15 60,25 C58,30 55,32 50,35 Z" 
        fill="#795548" stroke="#5D4037" stroke-width="2"/>
  
  <!-- Leaf -->
  <path d="M50,18 C40,13 30,20 40,25 C45,27 50,25 50,18 Z" 
        fill="#7CB342" stroke="#4B7B33" stroke-width="1.5"/>
  
  <!-- Shine -->
  <ellipse cx="40" cy="60" rx="8" ry="12" fill="#BEFA8E" opacity="0.5" transform="rotate(-15 40 60)"/>
</svg>
